# This file uses centimeters as units for non-parametric coordinates.

mtllib Hielo2.mtl
g default
v -0.726983 0.000000 0.001967
v -0.533179 0.000000 0.510536
v -0.009493 0.000000 0.847498
v -0.809226 0.531404 0.014053
v -0.551404 0.531404 0.506180
v 0.047571 0.531404 0.872593
v -0.467530 0.531404 -0.390300
v 0.461034 0.531404 0.513325
v 0.080484 0.531404 -0.706079
v 0.366289 0.531404 -0.484923
v 0.667099 0.531404 -0.121181
v 0.072882 0.000000 -0.689747
v 0.390042 0.000000 -0.481375
v 0.615080 0.000000 -0.066224
v -0.444118 0.000000 -0.383257
v 0.476883 0.000000 0.513732
v -0.739472 0.865739 0.047143
v -0.345539 1.346742 0.393170
v 0.000910 1.572772 0.007009
v -0.264380 1.010363 -0.443453
v 0.041043 0.865739 0.747391
v 0.436115 0.865739 0.385654
v 0.232920 0.865739 -0.449978
v -0.015888 0.865739 -0.506740
v 0.647613 0.865739 -0.124754
v -0.706986 1.137227 0.045382
v -0.422997 1.660072 0.292772
v -0.141454 1.678381 -0.021043
v -0.421768 1.137227 -0.272530
v -0.305848 1.660072 0.397874
v 0.039283 1.137227 0.714906
v 0.324501 1.137227 0.396994
v -0.024305 1.636079 0.084059
v 0.105676 1.486768 0.001330
v 0.423588 1.047489 0.286549
v 0.555568 1.049542 -0.071617
v 0.396717 1.137227 -0.250423
v -0.580020 1.850219 0.038500
v -0.448858 1.778727 0.156174
v -0.283723 1.778727 -0.027890
v -0.414886 1.850219 -0.145564
v -0.034138 2.372633 0.440410
v 0.027396 2.425384 0.495615
v 0.105211 2.425384 0.408881
v 0.043677 2.372633 0.353675
v 0.297963 1.525780 -0.009093
v 0.413165 1.525780 0.094261
v 0.476213 1.265144 -0.030016
v 0.411087 1.277828 -0.142615
v 0.031909 -0.419699 -0.445305
v 0.248204 -0.419699 -0.303200
v -0.320671 -0.419699 -0.236287
v 0.401674 -0.419699 -0.020078
v 0.307427 -0.419699 0.375436
v -0.381408 -0.419699 0.373256
v -0.513577 -0.419699 0.026426
v -0.024268 -0.419699 0.603056
v -0.032508 -0.750593 -0.060990
v 0.025205 -0.750593 -0.023073
v -0.047025 -0.750593 0.066292
v -0.126586 -0.750593 -0.005218
v 0.066155 -0.750593 0.052472
v 0.041008 -0.750593 0.158006
v -0.142792 -0.750593 0.157424
v -0.178058 -0.750593 0.064880
v -0.047497 -0.750593 0.218741
vt 0.375000 0.000000
vt 0.500000 0.000000
vt 0.625000 0.000000
vt 0.375000 0.250000
vt 0.500000 0.250000
vt 0.625000 0.250000
vt 0.375000 0.375000
vt 0.500000 0.375000
vt 0.625000 0.375000
vt 0.375000 0.500000
vt 0.500000 0.500000
vt 0.625000 0.500000
vt 0.375000 0.750000
vt 0.500000 0.750000
vt 0.625000 0.750000
vt 0.375000 0.875000
vt 0.500000 0.875000
vt 0.625000 0.875000
vt 0.375000 1.000000
vt 0.500000 1.000000
vt 0.625000 1.000000
vt 0.875000 0.000000
vt 0.750000 0.000000
vt 0.875000 0.250000
vt 0.750000 0.250000
vt 0.125000 0.000000
vt 0.250000 0.000000
vt 0.125000 0.250000
vt 0.250000 0.250000
vt 0.375000 0.250000
vt 0.500000 0.250000
vt 0.375000 0.375000
vt 0.625000 0.250000
vt 0.625000 0.375000
vt 0.500000 0.500000
vt 0.375000 0.500000
vt 0.625000 0.500000
vt 0.375000 0.250000
vt 0.500000 0.250000
vt 0.500000 0.375000
vt 0.375000 0.375000
vt 0.500000 0.250000
vt 0.625000 0.250000
vt 0.625000 0.375000
vt 0.500000 0.375000
vt 0.500000 0.375000
vt 0.625000 0.375000
vt 0.625000 0.500000
vt 0.500000 0.500000
vt 0.375000 0.250000
vt 0.500000 0.250000
vt 0.500000 0.375000
vt 0.375000 0.375000
vt 0.625000 0.250000
vt 0.625000 0.375000
vt 0.500000 0.500000
vt 0.625000 0.500000
vt 0.375000 0.750000
vt 0.500000 0.750000
vt 0.375000 0.875000
vt 0.625000 0.750000
vt 0.625000 0.875000
vt 0.500000 1.000000
vt 0.375000 1.000000
vt 0.625000 1.000000
vt 0.375000 0.750000
vt 0.500000 0.750000
vt 0.375000 0.875000
vt 0.625000 0.750000
vt 0.625000 0.875000
vt 0.500000 1.000000
vt 0.375000 1.000000
vt 0.625000 1.000000
vn -0.898580 -0.214924 0.382572
vn -0.897807 -0.220527 0.381196
vn -0.881018 0.074865 0.467122
vn -0.882449 0.069040 0.465314
vn -0.527189 -0.166145 0.833347
vn -0.528394 -0.146895 0.836195
vn -0.512651 0.130156 0.848675
vn -0.512774 0.129468 0.848706
vn 0.279835 0.926640 0.251058
vn 0.424559 0.813905 0.396622
vn 0.426209 0.812225 0.398293
vn 0.279835 0.926640 0.251058
vn -0.400399 0.842994 -0.359223
vn -0.400399 0.842994 -0.359223
vn -0.400399 0.842994 -0.359223
vn -0.400399 0.842994 -0.359223
vn 0.676585 0.505689 -0.535268
vn 0.676585 0.505689 -0.535268
vn 0.735814 0.436658 -0.517599
vn 0.747639 0.421436 -0.513252
vn -0.087126 0.095777 -0.991582
vn 0.540881 0.134499 -0.830276
vn 0.554149 -0.217243 -0.803570
vn -0.105848 -0.209088 -0.972152
vn 0.774034 0.052395 -0.630972
vn 0.779494 0.042922 -0.624937
vn 0.828372 -0.220165 -0.515100
vn 0.828940 -0.211710 -0.517724
vn 0.000000 -1.000000 0.000001
vn 0.000000 -1.000000 0.000001
vn 0.000000 -1.000000 0.000001
vn 0.000000 -1.000000 0.000001
vn 0.000000 -1.000000 0.000000
vn 0.000000 -1.000000 0.000000
vn 0.000000 -1.000000 0.000000
vn 0.000000 -1.000000 0.000000
vn 0.000000 -1.000000 0.000000
vn 0.000000 -1.000000 0.000000
vn 0.000000 -1.000000 0.000000
vn 0.000000 -1.000000 0.000000
vn 0.000000 -1.000000 0.000001
vn 0.000000 -1.000000 0.000001
vn 0.000000 -1.000000 0.000001
vn 0.000000 -1.000000 0.000001
vn 0.951200 -0.174670 0.254380
vn 0.952170 -0.167881 0.255319
vn 0.952959 0.040254 0.300415
vn 0.954842 0.029882 0.295609
vn 0.580694 -0.208850 0.786877
vn 0.579023 -0.216118 0.786146
vn 0.629491 0.098945 0.770682
vn 0.627183 0.076446 0.775111
vn -0.497922 -0.183792 -0.847522
vn -0.472997 0.045598 -0.879883
vn -0.775138 -0.208424 -0.596423
vn -0.776497 -0.195019 -0.599183
vn -0.769331 0.075684 -0.634351
vn -0.767691 0.086692 -0.634929
vn -0.769329 0.140700 0.623166
vn -0.816129 0.212638 0.537325
vn -0.737984 0.188979 -0.647817
vn -0.737986 0.188696 -0.647897
vn -0.500375 0.238691 0.832257
vn -0.551523 0.171078 0.816428
vn 0.660420 0.250486 0.707885
vn 0.659068 0.253205 0.708179
vn -0.016404 0.444638 -0.895560
vn 0.249204 0.534083 -0.807869
vn -0.388268 0.212170 -0.896790
vn 0.923571 0.170100 0.343632
vn 0.924786 0.164396 0.343140
vn 0.675496 0.213879 -0.705663
vn 0.674023 0.220081 -0.705165
vn -0.741894 0.143204 0.655047
vn -0.719217 0.084783 0.689593
vn 0.553356 0.495613 0.669452
vn 0.553356 0.495613 0.669452
vn 0.548762 0.540007 0.638164
vn 0.548006 0.545960 0.633733
vn 0.084125 0.562430 -0.822554
vn 0.119453 0.567722 -0.814508
vn 0.104247 0.486961 -0.867180
vn 0.272861 0.388359 -0.880184
vn -0.736725 0.101259 -0.668568
vn -0.736074 0.093724 -0.670381
vn -0.600785 0.099568 0.793186
vn -0.578839 0.133966 0.804362
vn 0.725552 0.136919 0.674409
vn 0.726593 0.135608 0.673553
vn 0.870995 0.422269 -0.251109
vn 0.870995 0.422269 -0.251109
vn 0.780833 0.198585 -0.592338
vn 0.843068 0.313791 -0.436773
vn -0.757355 0.166183 -0.631504
vn -0.757355 0.166183 -0.631504
vn -0.721086 0.258115 -0.642971
vn -0.728158 0.241718 -0.641373
vn 0.242319 0.600508 0.762019
vn 0.242318 0.600508 0.762019
vn 0.110472 0.579479 0.807465
vn 0.007894 0.555556 0.831442
vn 0.912593 0.250288 0.323310
vn 0.911425 0.252680 0.324743
vn 0.690530 0.299972 -0.658167
vn 0.686459 0.298024 -0.663292
vn 0.118512 0.589496 -0.799030
vn 0.125219 0.591959 -0.796181
vn -0.760242 0.199111 0.618374
vn -0.760242 0.199111 0.618374
vn 0.510722 0.208207 -0.834154
vn 0.510722 0.208207 -0.834154
vn -0.738495 0.125112 -0.662549
vn -0.738495 0.125112 -0.662549
vn -0.571184 0.145544 0.807816
vn -0.571184 0.145544 0.807816
vn 0.738993 0.119685 0.662996
vn 0.738993 0.119685 0.662996
vn 0.743963 0.146250 -0.652020
vn 0.743963 0.146250 -0.652020
vn -0.700165 0.303354 -0.646332
vn -0.700165 0.303354 -0.646332
vn -0.310499 0.439456 0.842893
vn -0.310499 0.439456 0.842893
vn 0.941624 0.183172 0.282474
vn 0.941624 0.183172 0.282474
vn -0.047964 0.518181 -0.853925
vn -0.047964 0.518181 -0.853925
vn 0.452467 -0.566552 -0.688690
vn 0.458264 -0.550881 -0.697513
vn -0.449924 -0.470703 -0.758951
vn -0.442991 -0.495347 -0.747255
vn 0.746713 -0.527809 -0.404767
vn 0.749719 -0.522267 -0.406396
vn 0.844093 -0.497041 0.201138
vn 0.843997 -0.497214 0.201115
vn -0.817588 -0.484229 0.311565
vn -0.815068 -0.489069 0.310605
vn -0.704180 -0.486589 -0.517070
vn -0.709588 -0.474343 -0.521041
vn 0.484709 -0.515894 0.706336
vn 0.480412 -0.528301 0.700074
vn -0.466488 -0.506737 0.724987
vn -0.471905 -0.489307 0.733406
vn 0.373508 -0.733002 -0.568507
vn 0.373508 -0.733002 -0.568507
vn -0.379080 -0.668884 -0.639447
vn -0.379080 -0.668884 -0.639447
vn 0.622919 -0.705659 -0.337663
vn 0.622919 -0.705660 -0.337663
vn 0.710363 -0.683177 0.169272
vn 0.710363 -0.683177 0.169272
vn -0.692457 -0.671468 0.263881
vn -0.692457 -0.671468 0.263881
vn -0.603279 -0.663191 -0.442980
vn -0.603279 -0.663191 -0.442980
vn 0.400621 -0.706174 0.583799
vn 0.400621 -0.706174 0.583799
vn -0.394514 -0.684419 0.613130
vn -0.394514 -0.684419 0.613130
s 1
g pCube2
usemtl initialShadingGroup
f 1/1/1 2/2/2 5/5/3 4/4/4
s 2
f 2/2/5 3/3/6 6/6/7 5/5/8
s 3
f 38/50/9 39/51/10 40/52/11 41/53/12
s off
f 42/51/13 43/54/14 44/55/15 45/52/16
s 4
f 46/52/17 47/55/18 48/57/19 49/56/20
s 5
f 9/10/21 10/11/22 13/14/23 12/13/24
s 4
f 10/11/25 11/12/26 14/15/27 13/14/28
s off
f 58/66/29 59/67/30 60/17/31 61/68/32
f 59/67/33 62/69/34 63/70/35 60/17/36
f 61/68/37 60/17/38 64/71/39 65/72/40
f 60/17/41 63/70/42 66/73/43 64/71/44
s 7
f 16/23/45 14/22/46 11/24/47 8/25/48
s 8
f 3/3/49 16/23/50 8/25/51 6/6/52
s 5
f 12/26/24 15/27/53 7/29/54 9/28/21
s 9
f 15/27/55 1/1/56 4/4/57 7/29/58
s 1
f 4/4/4 5/5/3 18/31/59 17/30/60
s 9
f 7/7/58 4/4/57 17/30/61 20/32/62
s 2
f 5/5/8 6/6/7 21/33/63 18/31/64
s 8
f 6/6/52 8/9/51 22/34/65 21/33/66
s 5
f 10/11/22 9/10/21 24/36/67 23/35/68
f 9/10/21 7/7/54 20/32/69 24/36/67
s 7
f 8/9/48 11/12/47 25/37/70 22/34/71
s 4
f 11/12/26 10/11/25 23/35/72 25/37/73
s 1
f 17/30/60 18/31/59 27/39/74 26/38/75
s 3
f 18/31/76 19/8/77 28/40/78 27/39/79
s 5
f 19/8/80 20/32/81 29/41/82 28/40/83
s 9
f 20/32/62 17/30/61 26/38/84 29/41/85
s 2
f 18/31/64 21/33/63 31/43/86 30/42/87
s 8
f 21/33/66 22/34/65 32/44/88 31/43/89
s 10
f 22/34/90 19/8/91 33/45/92 32/44/93
s 11
f 19/8/94 18/31/95 30/42/96 33/45/97
s 12
f 19/8/98 22/34/99 35/47/100 34/46/101
s 7
f 22/34/71 25/37/70 36/48/102 35/47/103
s 4
f 25/37/73 23/35/72 37/49/104 36/48/105
s 5
f 23/35/68 19/8/80 34/46/106 37/49/107
s 1
f 26/30/75 27/31/74 39/51/108 38/50/109
s 3
f 27/31/79 28/46/78 40/52/11 39/51/10
s 5
f 28/46/83 29/32/82 41/53/110 40/52/111
s 9
f 29/32/85 26/30/84 38/50/112 41/53/113
s 2
f 30/31/87 31/33/86 43/54/114 42/51/115
s 8
f 31/33/89 32/47/88 44/55/116 43/54/117
s 10
f 32/47/93 33/46/92 45/52/118 44/55/119
s 11
f 33/46/97 30/31/96 42/51/120 45/52/121
s 12
f 34/46/101 35/47/100 47/55/122 46/52/123
s 7
f 35/47/103 36/48/102 48/57/124 47/55/125
s 4
f 36/48/105 37/49/104 49/56/20 48/57/19
s 5
f 37/49/107 34/46/106 46/52/126 49/56/127
f 19/8/80 23/35/68 24/36/67 20/32/81
f 12/13/24 13/14/23 51/59/128 50/58/129
f 15/16/53 12/13/24 50/58/130 52/60/131
s 4
f 13/14/28 14/15/27 53/61/132 51/59/133
s 7
f 14/15/46 16/18/45 54/62/134 53/61/135
s 1
f 2/20/2 1/19/1 56/64/136 55/63/137
s 9
f 1/19/56 15/16/55 52/60/138 56/64/139
s 8
f 16/18/50 3/21/49 57/65/140 54/62/141
s 2
f 3/21/6 2/20/5 55/63/142 57/65/143
s 5
f 50/58/129 51/59/128 59/67/144 58/66/145
f 52/60/131 50/58/130 58/66/146 61/68/147
s 4
f 51/59/133 53/61/132 62/69/148 59/67/149
s 7
f 53/61/135 54/62/134 63/70/150 62/69/151
s 1
f 55/63/137 56/64/136 65/72/152 64/71/153
s 9
f 56/64/139 52/60/138 61/68/154 65/72/155
s 8
f 54/62/141 57/65/140 66/73/156 63/70/157
s 2
f 57/65/143 55/63/142 64/71/158 66/73/159
